<svg xmlns="http://www.w3.org/2000/svg" viewBox="0 0 868.8 230.9"><title>NAQuebec_Logo</title><path d="M202.4,94.5C185,29,126.9,25.8,126.9,25.8V108l-12.2-.2V45.2H94v70.3L59.3,43.9C29.4,69.2,26.5,93,25.7,114.8c-1.3,36.6,20.9,59.8,20.9,59.8H74.7C23.9,132.1,55.5,79.3,55.5,79.3l59.1,123.5V126.9h12.2v47.6h20.5V127l36.9,0.4c-4.4,31.4-28.4,47.3-28.4,47.3l29.2-.4C184.9,174.5,214.6,140.5,202.4,94.5Zm-55,13.7c0.2,0-.4-54.7-0.4-54.7,33.8,16.8,37.5,54.7,37.5,54.7H147.4Z" transform="translate(0.1 0)" fill="#1a76be"/><path d="M115.4,0a115.38,115.38,0,1,0,.14,0H115.4Zm0,227.4A111.9,111.9,0,1,1,227.3,115.5h0A111.9,111.9,0,0,1,115.4,227.4Z" transform="translate(0.1 0)" fill="#1a76be"/><path d="M115.4,14.2A101.3,101.3,0,1,0,216.7,115.5h0A101.36,101.36,0,0,0,115.4,14.2Zm0,199a97.65,97.65,0,1,1,.1,0h-0.1Z" transform="translate(0.1 0)" fill="#1a76be"/><path d="M223.3,214.4a8.3,8.3,0,1,1-8.5-8.1H215a8.13,8.13,0,0,1,8.3,8S223.3,214.35,223.3,214.4Zm-14.6,0a6.32,6.32,0,0,0,6.14,6.5H215a6.45,6.45,0,1,0-6.3-6.6S208.7,214.37,208.7,214.4Zm5,4.2h-1.9v-8.1a22.79,22.79,0,0,1,3.1-.2,4.63,4.63,0,0,1,2.8.6,2.36,2.36,0,0,1,.8,1.8,2.1,2.1,0,0,1-1.7,1.9v0.1a2.51,2.51,0,0,1,1.5,2,5.14,5.14,0,0,0,.6,2h-2a6.85,6.85,0,0,1-.6-2c-0.1-.9-0.6-1.3-1.7-1.3h-0.9v3.2h0Zm0.1-4.6h0.9c1,0,1.9-.3,1.9-1.2,0-.7-0.5-1.2-1.7-1.2a2.51,2.51,0,0,0-1,.1V214h-0.1Z" transform="translate(0.1 0)" fill="#1a76be"/><path d="M298.3,108.8h-8L277.7,89.3h-0.1v19.5h-8V78.2h8l12.6,19.5h0.1V78.2h8v30.6Z" transform="translate(0.1 0)" fill="#1a76be"/><path d="M322.4,102.9H311.5l-1.9,6h-8l11.1-30.6h8.6l11.1,30.5h-8Zm-9-5.5h7.3l-3.6-11H317Z" transform="translate(0.1 0)" fill="#1a76be"/><path d="M342.9,97.1v11.7h-8V78.2h13.3c4,0,7.2.8,9.5,2.5a7.83,7.83,0,0,1,3.5,6.7,6.56,6.56,0,0,1-1.4,4.1,9.66,9.66,0,0,1-4.2,2.8,7.8,7.8,0,0,1,4.6,2.7,7.62,7.62,0,0,1,1.4,4.6v1.9a9.29,9.29,0,0,0,.4,2.7,3.54,3.54,0,0,0,1.4,2.2v0.4h-8.2a3.39,3.39,0,0,1-1.2-2.3,17.09,17.09,0,0,1-.3-3.1v-1.9a3.9,3.9,0,0,0-1.3-3.3,5.41,5.41,0,0,0-3.8-1.2h-5.7v0.1Zm0-5.5h5.3a5.82,5.82,0,0,0,3.7-1,3.29,3.29,0,0,0,1.3-2.8,3.67,3.67,0,0,0-1.3-3,5.29,5.29,0,0,0-3.7-1.1H343v7.9h-0.1Z" transform="translate(0.1 0)" fill="#1a76be"/><path d="M393.7,98.1v0.1c-0.2,3.6-1.4,6.3-3.6,8.2s-5.5,2.8-9.7,2.8a15.38,15.38,0,0,1-10.4-3.5,11.28,11.28,0,0,1-4-9.1V90.2a12.07,12.07,0,0,1,3.8-9.1,14.5,14.5,0,0,1,10-3.5c4.4,0,7.7,1,10,2.9s3.6,4.7,3.9,8.3v0.1h-7.8a6.59,6.59,0,0,0-1.5-4.4c-0.9-1-2.4-1.5-4.6-1.5a5.28,5.28,0,0,0-4.3,1.9,8.17,8.17,0,0,0-1.6,5.1v6.4a7.65,7.65,0,0,0,1.7,5.1,5.9,5.9,0,0,0,4.7,2,5.33,5.33,0,0,0,4.1-1.4,7.17,7.17,0,0,0,1.4-4.4h7.9v0.4h0Z" transform="translate(0.1 0)" fill="#1a76be"/><path d="M426.5,96.3a11.83,11.83,0,0,1-4,9.3,15.27,15.27,0,0,1-10.5,3.7c-4.4,0-7.9-1.2-10.6-3.7a12.21,12.21,0,0,1-4.1-9.3V90.8a11.91,11.91,0,0,1,4.1-9.3c2.7-2.5,6.2-3.7,10.6-3.7a15.23,15.23,0,0,1,10.6,3.7,12.21,12.21,0,0,1,4.1,9.3v5.5h-0.2Zm-8-5.6a8.5,8.5,0,0,0-1.7-5.4,6.07,6.07,0,0,0-4.9-2.1,6.14,6.14,0,0,0-5,2.1,8.5,8.5,0,0,0-1.7,5.4v5.6a8.5,8.5,0,0,0,1.7,5.4,6.14,6.14,0,0,0,5,2.1,6.07,6.07,0,0,0,4.9-2.1,8,8,0,0,0,1.7-5.4V90.7Z" transform="translate(0.1 0)" fill="#1a76be"/><path d="M454.5,83.7h-9.1v25.1h-8V83.7h-9V78.2h26.1v5.5Z" transform="translate(0.1 0)" fill="#1a76be"/><path d="M466.3,108.8h-8V78.2h8v30.6Z" transform="translate(0.1 0)" fill="#1a76be"/><path d="M500.9,96.3a12.08,12.08,0,0,1-1,5,12.28,12.28,0,0,1-2.7,4l5.8,5-4.9,3.5-6.2-5.4a13.1,13.1,0,0,1-2.7.6,26.43,26.43,0,0,1-2.9.2c-4.4,0-7.9-1.2-10.6-3.7a12.06,12.06,0,0,1-4.1-9.3V90.8a11.91,11.91,0,0,1,4.1-9.3c2.7-2.5,6.2-3.7,10.6-3.7a15.23,15.23,0,0,1,10.6,3.7,12.21,12.21,0,0,1,4.1,9.3v5.5h-0.1Zm-8-5.6a8.5,8.5,0,0,0-1.7-5.4,6.07,6.07,0,0,0-4.9-2.1,6.14,6.14,0,0,0-5,2.1,8.5,8.5,0,0,0-1.7,5.4v5.6a8.5,8.5,0,0,0,1.7,5.4,6.14,6.14,0,0,0,5,2.1,6.07,6.07,0,0,0,4.9-2.1,8,8,0,0,0,1.7-5.4V90.7Z" transform="translate(0.1 0)" fill="#1a76be"/><path d="M534.8,78.2V98.3a9.44,9.44,0,0,1-3.9,8.1c-2.6,1.9-6,2.9-10.3,2.9s-7.7-1-10.3-2.9a9.44,9.44,0,0,1-3.9-8.1V78.2h8V98.3a5.09,5.09,0,0,0,1.6,4.2,8.51,8.51,0,0,0,9.2.1,5.09,5.09,0,0,0,1.6-4.2V78.3h8V78.2h0Z" transform="translate(0.1 0)" fill="#1a76be"/><path d="M561.6,95.7H548.1v7.6H564v5.5H540.1V78.2h24v5.5h-16v6.6h13.5v5.4Z" transform="translate(0.1 0)" fill="#1a76be"/><path d="M586,100.7a2.91,2.91,0,0,0-1.2-2.5,16.41,16.41,0,0,0-4.3-1.9,34.35,34.35,0,0,1-9.7-3.9,6.74,6.74,0,0,1-3.1-6c0-2.6,1.2-4.6,3.8-6.2a17.4,17.4,0,0,1,9.5-2.4,16.29,16.29,0,0,1,9.4,2.6,7.61,7.61,0,0,1,3.5,6.7v0.1h-7.8a3.89,3.89,0,0,0-1.4-3,5.68,5.68,0,0,0-3.9-1.1,6.89,6.89,0,0,0-3.8.9,2.78,2.78,0,0,0-1.4,2.3,2.63,2.63,0,0,0,1.4,2.2,33.58,33.58,0,0,0,5.2,2,24.3,24.3,0,0,1,8.8,3.8,7.36,7.36,0,0,1,3,6.2,7.16,7.16,0,0,1-3.5,6.3,17.19,17.19,0,0,1-9.4,2.3,19.82,19.82,0,0,1-10.2-2.6,8.16,8.16,0,0,1-4.2-7.5V98.9h7.8a4.28,4.28,0,0,0,1.6,3.8c1.1,0.8,2.7,1.1,4.9,1.1a6.1,6.1,0,0,0,3.7-.9A2.48,2.48,0,0,0,586,100.7Z" transform="translate(0.1 0)" fill="#1a76be"/><path d="M630.6,100.9H616.2l-3.3,7.9h-4.8l13.3-30.6h4l13.1,30.6h-4.8Zm-13-3.4h11.6l-5.7-13.9h-0.1Z" transform="translate(0.1 0)" fill="#1a76be"/><path d="M669.3,108.8h-4.7L648,85.1h-0.1v23.7h-4.7V78.2h4.7l16.6,23.6h0.1V78.2h4.7v30.6h0Z" transform="translate(0.1 0)" fill="#1a76be"/><path d="M703.9,96.2a12.38,12.38,0,0,1-3.9,9.3c-2.6,2.5-6,3.7-10.2,3.7a13.27,13.27,0,0,1-9.8-3.7,12.67,12.67,0,0,1-3.8-9.3V90.8a12.67,12.67,0,0,1,3.8-9.3,13.27,13.27,0,0,1,9.8-3.7c4.2,0,7.6,1.2,10.2,3.7a12.38,12.38,0,0,1,3.9,9.3v5.4Zm-4.7-5.4a9.68,9.68,0,0,0-2.6-6.9,9,9,0,0,0-6.9-2.7,8.31,8.31,0,0,0-6.5,2.7,10,10,0,0,0-2.4,6.9v5.5a10,10,0,0,0,2.4,6.9,8.31,8.31,0,0,0,6.5,2.7,9,9,0,0,0,6.9-2.7,9.69,9.69,0,0,0,2.5-7V90.8h0.1Z" transform="translate(0.1 0)" fill="#1a76be"/><path d="M736.9,108.8h-4.7L715.6,85.1h-0.1v23.7h-4.7V78.2h4.7l16.6,23.6h0.1V78.2h4.7v30.6Z" transform="translate(0.1 0)" fill="#1a76be"/><path d="M755.3,93.8l9-15.6h5.3L757.5,98.1v10.7h-4.6v-11L741,78.2h5.3Z" transform="translate(0.1 0)" fill="#1a76be"/><path d="M780.3,78.2l11,24.9h0.1l11-24.9h6v30.6h-4.7V96.7l0.5-12.4h-0.1l-11.2,24.6h-3.1L778.7,84.4h-0.1L779,96.8v12h-4.7V78.2h6Z" transform="translate(0.1 0)" fill="#1a76be"/><path d="M837.4,94.6H821.6v10.9h18.2v3.3H816.9V78.2h22.6v3.3H821.6v9.9h15.8v3.2h0Z" transform="translate(0.1 0)" fill="#1a76be"/><path d="M864,101.1a4.23,4.23,0,0,0-1.8-3.5,17.88,17.88,0,0,0-6.3-2.4,22.47,22.47,0,0,1-8.5-3.4,7,7,0,0,1-3.1-5.7,7.18,7.18,0,0,1,3.3-6,14.35,14.35,0,0,1,8.6-2.4c3.8,0,6.8.9,9,2.8a7.76,7.76,0,0,1,3.2,6.4V87H864a5.71,5.71,0,0,0-2-4.4c-1.3-1.2-3.2-1.7-5.7-1.7a8.81,8.81,0,0,0-5.3,1.4,4.37,4.37,0,0,0-1.9,3.6,4,4,0,0,0,2,3.3,18.31,18.31,0,0,0,6.5,2.3,20.73,20.73,0,0,1,8.3,3.5,7.24,7.24,0,0,1,2.8,5.8,6.82,6.82,0,0,1-3.4,6,15.87,15.87,0,0,1-8.9,2.2,16.37,16.37,0,0,1-9.1-2.5c-2.6-1.7-3.9-3.9-3.8-6.7V99.7h4.4a5,5,0,0,0,2.4,4.5,11.13,11.13,0,0,0,6,1.5,10.1,10.1,0,0,0,5.6-1.3A3.38,3.38,0,0,0,864,101.1Z" transform="translate(0.1 0)" fill="#1a76be"/><path d="M289.5,142.5a18.86,18.86,0,0,1-2.1,5.2,14.17,14.17,0,0,1-3.5,3.8l3.7,4-3.3,2.3-4-4.4a14.19,14.19,0,0,1-2.2.5,16.42,16.42,0,0,1-2.3.2,9,9,0,0,1-7.5-3.5,9.28,9.28,0,0,1-1.7-8.3l1.1-4.9a15.13,15.13,0,0,1,4.7-8.4,12.7,12.7,0,0,1,8.6-3,9.61,9.61,0,0,1,7.8,3.5,9.06,9.06,0,0,1,1.9,8.3Zm-3-4.9q0.9-3.9-.9-6.3a6.32,6.32,0,0,0-5.4-2.4,7.76,7.76,0,0,0-5.4,2.3,12.36,12.36,0,0,0-3.2,6.1l-1.1,4.9c-0.6,2.7-.4,4.8.8,6.4a5.76,5.76,0,0,0,5.1,2.4,8.1,8.1,0,0,0,5.7-2.3,12.06,12.06,0,0,0,3.3-6.1Z" transform="translate(0.1 0)" fill="#1a76be"/><path d="M306,153.6l0.4-2.8a10.34,10.34,0,0,1-3.1,2.4,9.21,9.21,0,0,1-3.8.8,5.61,5.61,0,0,1-4.9-2.2q-1.5-2.1-.6-6.6l2.7-12h4.1l-2.7,12c-0.5,2.3-.5,3.8-0.1,4.6a3.2,3.2,0,0,0,2.8,1.1,7.42,7.42,0,0,0,3.4-.8,8.15,8.15,0,0,0,2.6-2.3l3.3-14.6h4.1l-4.6,20.3H306v0.1Z" transform="translate(0.1 0)" fill="#1a76be"/><path d="M324.6,154c-2.9,0-5.1-.9-6.5-2.8a9.23,9.23,0,0,1-1.4-7.3l0.1-.8a12.32,12.32,0,0,1,4-7.3,10,10,0,0,1,6.9-2.8c2.8,0,4.8.8,6,2.5a8.4,8.4,0,0,1,1.1,6.6l-0.4,2.3H320.6a7.48,7.48,0,0,0,.6,4.9,4.06,4.06,0,0,0,3.8,1.8,10.3,10.3,0,0,0,3.5-.6,14.61,14.61,0,0,0,2.8-1.4l1.2,2.4a12.87,12.87,0,0,1-3.3,1.8A14.84,14.84,0,0,1,324.6,154Zm2.7-18.2a4.71,4.71,0,0,0-3.4,1.6,9.83,9.83,0,0,0-2.4,3.9l0.1,0.1H331l0.1-.5a5,5,0,0,0-.5-3.7A3.69,3.69,0,0,0,327.3,135.8Zm3.5-10.5h4.7v0.1l-6.2,4.9h-3Z" transform="translate(0.1 0)" fill="#1a76be"/><path d="M357.3,144.5a12.94,12.94,0,0,1-3.6,7,9,9,0,0,1-6.5,2.4,6.29,6.29,0,0,1-3.3-.9,6.42,6.42,0,0,1-2.4-2.5l-1.1,3h-3.5l6.6-29.3h4.1L345.2,135a7.44,7.44,0,0,1,2.7-1.6,11.38,11.38,0,0,1,3.3-.6,5.85,5.85,0,0,1,5.5,3.3c1.2,2.2,1.4,4.8.7,8Zm-4-.4a10.8,10.8,0,0,0-.1-6,3.67,3.67,0,0,0-3.7-2.3,4.68,4.68,0,0,0-2.8.9,8.38,8.38,0,0,0-2.3,2.3l-2,9a4.25,4.25,0,0,0,1.6,2.1,5.22,5.22,0,0,0,2.9.8,5.5,5.5,0,0,0,4.1-1.7,9.88,9.88,0,0,0,2.3-4.7v-0.4h0Z" transform="translate(0.1 0)" fill="#1a76be"/><path d="M369.4,154c-2.9,0-5.1-.9-6.5-2.8a9.23,9.23,0,0,1-1.4-7.3l0.1-.8a12.32,12.32,0,0,1,4-7.3,10,10,0,0,1,6.9-2.8c2.8,0,4.8.8,6,2.5a8.4,8.4,0,0,1,1.1,6.6l-0.4,2.3H365.4a7.48,7.48,0,0,0,.6,4.9,4.06,4.06,0,0,0,3.8,1.8,10.3,10.3,0,0,0,3.5-.6,14.61,14.61,0,0,0,2.8-1.4l1.2,2.4a12.87,12.87,0,0,1-3.3,1.8A15.35,15.35,0,0,1,369.4,154Zm2.6-18.2a4.71,4.71,0,0,0-3.4,1.6,9.83,9.83,0,0,0-2.4,3.9l0.1,0.1h9.4l0.1-.5a5,5,0,0,0-.5-3.7C374.7,136.2,373.6,135.8,372,135.8Z" transform="translate(0.1 0)" fill="#1a76be"/><path d="M391.3,151a6.56,6.56,0,0,0,3.5-1.1,4.26,4.26,0,0,0,2-2.8h3.7v0.1a7.16,7.16,0,0,1-3.3,4.7,11,11,0,0,1-6.3,2c-3,0-5.2-1-6.5-2.9a9.23,9.23,0,0,1-1.3-7.2l0.1-.8a12.62,12.62,0,0,1,3.8-7.3,10.58,10.58,0,0,1,7.7-2.8,7.7,7.7,0,0,1,5.7,2.1,5.17,5.17,0,0,1,1.4,5.2v0.1h-3.7a3.8,3.8,0,0,0-.7-3.2,4.13,4.13,0,0,0-3.2-1.3,5.74,5.74,0,0,0-4.6,2.1,10.75,10.75,0,0,0-2.2,5.1l-0.1.8a8.69,8.69,0,0,0,.3,5.2C387.9,150.4,389.3,151,391.3,151Z" transform="translate(0.1 0)" fill="#1a76be"/></svg>