<?xml version="1.0" encoding="utf-8"?>
<!-- Generator: Adobe Illustrator 17.1.0, SVG Export Plug-In . SVG Version: 6.00 Build 0)  -->
<!DOCTYPE svg PUBLIC "-//W3C//DTD SVG 1.1//EN" "http://www.w3.org/Graphics/SVG/1.1/DTD/svg11.dtd">
<svg version="1.1" id="Layer_1" xmlns="http://www.w3.org/2000/svg" xmlns:xlink="http://www.w3.org/1999/xlink" x="0px" y="0px"
	 viewBox="0 0 628.4 236.1" style="enable-background:new 0 0 628.4 236.1;" xml:space="preserve">
<style type="text/css">
	.st0{fill-rule:evenodd;clip-rule:evenodd;fill:#DA0146;}
</style>
<g>
	<path class="st0" d="M58.1,193.2c2.6-16.8,19.4-123.1,27.5-141.9c7.8-8.7,25.6-21.4,30.8-24.9c2.6,14.9,18.5,106.9,43.7,140.9
		c1,1.3,1.3,2.6,1,3.9c-0.6,2.3-2.6,4.2-2.6,4.2l-29.1,1.3l-4.5-13c-0.6-1.3-2.3-4.2-6.2-4.2H95.4h-1.3c-1.9,0-6.2,0.6-6.8,7.8
		c-0.3,1.3-0.3,2.3-0.3,3.6c-0.6,6.2-0.6,10-6.5,12.3L58.1,193.2L58.1,193.2z M606.1,134.6c1.3,0.6,22,18.8,21.7,25.3
		c-4.2,4.2-7.4,8.4-9.4,8.4c0,0-60.2-2.9-75.1,1.9l-4.2-3.9c-1-1-1.6-3.6-1.6-3.6c1.3-1.6,2.3-3.2,2.3-3.6c0.3-0.6,0.3-2.9,0-12.6
		c-0.3-2.9-0.3-6.5-0.3-10.4c0.3-1.6,1-3.2,1.3-5.2c0,0,16.2-50.2,0-81l5.8-16.8c40.5,27.2,45,31.4,45,31.4s4.2,4.2,0,5.8
		c-7.1,6.8-7.8,7.1-7.8,7.1c-0.7,0-14.2-4.5-14.6-4.2c-0.3,0.3-1.6,22-1.3,22.3c0.3,0.3,7.1,1.6,7.5,1.9c0.3,0.3-2.6,23.3-3.9,24.3
		c-1,1.3-3.9-0.6-4.5,0c-0.7,1-5.2,19.4-5.5,21.7c0,0,0,2.6,6.5,2.6h21.4c0.7-3.6-1.9-7.4-1.9-7.4c-2.3-3.9-2.3-5.8-1.6-6.8
		C586,131,604.5,133.9,606.1,134.6L606.1,134.6z M429.9,82.8c-1.3,2.9-16.2,19.4-17.2,22c-0.6,2.3,3.2,41.5,2,44.7
		c-1.3,3.2-21.7,21.4-23.3,22.3c-1.9,1-7.1,0.3-8.4,0c0,0-1.3-0.3,5.5-67c1.3-3.9-1.9-7.1-1.9-7.1l-18.1-15.5
		c0.7-7.8,1.6-15.9,2.9-23.6c2.9,0,7.8,0.3,9.1,1c1.6,0.6,20.7,23.6,22.7,23.6c2.3,0,13.6-28.2,15.9-29.8c2.3-1.6,7.1-3.6,8.1-2.9
		C427.7,51.4,431.2,79.5,429.9,82.8L429.9,82.8z M274.8,83.7c0.6-2.6,0.6-9.1,0.6-9.1c0-6.5-10.7-11.3-18.5-11.3
		c0,0-7.8,0-18.1,14.3c11.3-0.6,12,0,12,0c0.6,0.3,0.3,1.9-0.6,3.2c-1,1-17.8,11.3-16.5,23c0,0,1.6,11.7,11.7,12.3
		C245.3,116.1,264.4,116.1,274.8,83.7L274.8,83.7z M298.5,98.6c-5.2,14.9-19.4,39.2-59.3,38.9c-11,0-18.8-3.6-24.3-8.7
		c-1.9-12.3-3.2-25.6-3.2-38.9c2.3-4.2,5.5-8.1,9.1-11.7l-9.1-1c0.3-6.2,1-12,1.9-18.1c8.1-9.7,22-20.1,43.4-20.1
		c25.3-0.3,36.3,12.3,40.8,22c1.3,5.8,1.9,11.7,1.9,17.2C300.1,84.7,299.4,91.8,298.5,98.6L298.5,98.6z M329.5,195.1
		c0,0,128.2,15.2,175.2-24c-2.3,19.8-17.5,39.8-17.5,39.8c-11,14.9-71.9,24.6-162.6,9.7c-32.7-5.2-73.8-12.3-108.5-12.3
		C108,208.4,72.4,231.7,69.8,233c-2.3,1.3-7.4,5.8-8.1-1.6c0,0-0.3-7.4,32.7-38.2c22-13.3,116.3-9.1,116.3-9.1
		c9.7,5.8,15.9,7.4,16.5,7.4l1.9,0.6l-0.6-1.9c0-0.3-0.6-2.3-1.6-5.5C255.1,186.7,289.1,189.6,329.5,195.1L329.5,195.1z M221.4,25.4
		c-27.5,53.1-0.6,147.4,4.2,163.2c-5.2-1.9-18.5-7.8-34-23.6c-13.9-56-6.2-106.2-6.2-106.6l0.3-3.2l-16.8,14.3v0.6
		c2.9,23.6,5.8,60.9,2.6,65.7c-3.9,5.8-10.7,8.4-15.5,10.7l-1.9,0.6l-1.9,1c-2.9-6.2-5.5-13-8.1-20.4c5.8-36.6-9.4-78.1-17.2-96.2
		c0-0.6-0.3-1-0.3-1v-3.6c4.5,1.6,32.7,15.2,34.3,16.5c0.6,1,3.6,11.7,3.6,12.6c0,1.6,1.3,2.6,3.6,2.6c0.3,0,1.3-0.3,1.6-0.6
		c0.3,0,1-0.6,5.8-6.2c3.2-3.9,8.4-9.7,9.1-10.4l32.4-17.5h0.3c1.6-1,2.3-1,2.9-1c0.6,0,1,0.3,1.3,1.9V25.4L221.4,25.4z M28.3,169.6
		c-7.1-3.6-21-15.5-27.8-23c7.4-23.3,7.8-60.9,8.1-73.2v-1c0-11.7-5.2-50.2-5.5-51.8c0-1.3,0-4.9,1.6-6.2c0.3-0.6,1-0.6,1.3-0.6
		c3.9,0,18.5,9.7,23.3,13.9c14.6,60.2,3.2,115,2.9,115.6v0.3c0.3,1.6,1.3,4.2,3.9,4.2c1,0,1.6,0,2.6-0.6c1-0.6,2.9-1.6,4.9-2.9
		c4.2-2.6,12.6-7.4,13.6-7.8c1,0,3.2,1.3,3.6,1.6l2.9,2.9c0.6,0.3,0.6,0.6,0.6,0.6c0,0.3-0.3,1-1.9,2.3c-4.2,2.9-26.6,23-29.8,25.6
		H28.3L28.3,169.6z M63,43.6v-7.8c-18.5,1.9-18.5-18.1-18.5-18.1C44.5,6,55.9,0.5,61.1,0.5c5.2,0,12,1.3,14.3,10.4
		c1,3.6,0.3,7.8,0,12.3C75.3,23.2,75,29,63,43.6L63,43.6z M105.1,145.3c5.5,0,10-0.6,13.9-1.6l1.3-0.3l-0.6-1.3
		c-8.1-19.1-12.3-66.4-12.3-66.7l-1-9.1l-13.6,73.8c0.3,1.6,1.6,4.5,4.9,4.9H98C99.6,144.9,102.2,145.3,105.1,145.3L105.1,145.3z
		 M366.8,184.8c0,0-16.2-9.7-26.6-23.6c-12.9-67.4,5.8-113.7,5.8-114l1.9-4.9l-23.3,20.1V63c-0.3,31.7-3.2,80.3-10,84.9
		c-12,7.4-20.7,9.4-24.9,9.7h-3.2c-2.6,0-3.6-0.6-3.9-1c-0.3-0.6,0-1.6,0.6-3.2c13-25.6,19.4-51.5,19.1-75.1
		c-0.3-22-12.3-50.9-13.6-54.4c0.3-2.3,1.6-3.2,4.2-3.2h0.6l29.8,16.5c1,1,1.6,7.4,1.6,13.9l-0.3,3.2L327,52
		c4.5-4.9,12.3-13,13.6-13.6c1.3-1,25.6-13.3,34.7-17.8c0,0,2-0.6,3.9-0.6c1,0,1.6,0.3,1.9,0.6c0,0,0.3,1-0.7,2.9
		c-29.1,56.7-7.4,148.7-4.2,160.6c-1.9,0.3-5.8,1-8.1,1C367.1,185.1,366.8,184.8,366.8,184.8L366.8,184.8z M510.6,77.9
		c-6.5,23.6-16.8,62.2-18.4,64.4c0,0-0.7,0.3-2.9,0.3c-6.2,0-14.6-1.6-15.6-2.6c-1-1.3-5.5-15.5-9.1-27.9l-1.9-6.5l-0.3,6.5l-4.2,58
		c-0.3,6.8-2.9,6.8-3.9,6.8c-0.6,0-1.6-0.3-2.3-0.3c0,0-0.3-0.3-0.3,0c-1.6-1.3-14.3-17.8-22-28.5c1.3-6.8,13.3-78.1-9.4-130.2
		c-1.3-2.9-1-4.2-1-4.2c0.3-0.3,1-0.3,1.3-0.3c1,0,1.9,0,2.3,0.3c2.3,1.6,24.9,19.1,32.1,23c6.8,3.6,8.4,10.4,8.4,10.4l22,61.9
		l9.7-59.3l35.9-36h2c2.6,0,7.1,0.3,12.3,1.9c-12,29.1-9.4,100.1-8.1,130.8c0.3,5.8,0.7,11,0.3,11.7c-0.7,1.9-14.6,19.4-24.6,31.7
		V68.8L510.6,77.9L510.6,77.9z"/>
</g>
</svg>
